<svg width="90" height="89" viewBox="0 0 90 89" fill="none" xmlns="http://www.w3.org/2000/svg">
<path d="M66.5014 3.17743C64.4749 0.914268 58.4766 2.04585 57.0986 5.44059C56.261 6.81466 54.8776 10.3387 56.0449 13.4425C57.5039 17.3222 63.3825 15.4216 66.5014 13.4425C70.0679 11.1793 68.5278 5.44059 66.5014 3.17743Z" stroke="white" stroke-width="3"/>
<path d="M76.55 23.3422C76.55 23.3422 72.2539 21.3215 72.2539 25.1204C72.2539 28.9192 73.6464 31.8767 75.8205 32.9606C78.7386 34.4155 81.1014 29.8078 81.0082 27.9493C80.8461 24.7162 76.55 23.3422 76.55 23.3422Z" stroke="white" stroke-width="3"/>
<circle cx="85.3242" cy="10.5651" r="3.17575" stroke="white" stroke-width="3"/>
<path d="M83.5102 46.1727C83.5102 68.6855 65.2635 86.9357 42.7551 86.9357C20.2467 86.9357 2 68.6855 2 46.1727C2 23.66 20.2467 5.40979 42.7551 5.40979C36.9788 38.5832 62.7082 23.9457 66.5022 38.5832C70.674 54.6784 84.0466 39.4669 83.5102 46.1727Z" stroke="white" stroke-width="3" stroke-linecap="round" stroke-linejoin="round"/>
<circle cx="60.3869" cy="60.4398" r="4.87466" stroke="white" stroke-width="2"/>
<circle cx="26.5776" cy="37.9003" r="6.31335" stroke="white" stroke-width="2"/>
<circle cx="31.6131" cy="65.9548" r="2.71662" stroke="white" stroke-width="2"/>
</svg>

